<svg width="1600" height="560" viewBox="0 0 1600 560" fill="none" xmlns="http://www.w3.org/2000/svg">
  <defs>
    <linearGradient id="bg" x1="140" y1="60" x2="1480" y2="500" gradientUnits="userSpaceOnUse">
      <stop offset="0" stop-color="#082F49"/>
      <stop offset="0.5" stop-color="#0F766E"/>
      <stop offset="1" stop-color="#2563EB"/>
    </linearGradient>
    <linearGradient id="panel" x1="180" y1="100" x2="1400" y2="450" gradientUnits="userSpaceOnUse">
      <stop offset="0" stop-color="#FFFFFF" stop-opacity="0.16"/>
      <stop offset="1" stop-color="#FFFFFF" stop-opacity="0.08"/>
    </linearGradient>
  </defs>
  <rect width="1600" height="560" rx="36" fill="url(#bg)"/>
  <circle cx="1340" cy="120" r="150" fill="#FFFFFF" fill-opacity="0.08"/>
  <circle cx="1480" cy="430" r="220" fill="#BFDBFE" fill-opacity="0.12"/>
  <rect x="72" y="66" width="1456" height="428" rx="28" fill="url(#panel)" stroke="#FFFFFF" stroke-opacity="0.16"/>
  <text x="112" y="140" fill="#CCFBF1" font-family="Segoe UI, Arial, sans-serif" font-size="22" letter-spacing="4">CODEX SKILL</text>
  <text x="112" y="228" fill="#FFFFFF" font-family="Georgia, 'Times New Roman', serif" font-size="68" font-weight="700">Figures Diagram</text>
  <text x="112" y="286" fill="#DBEAFE" font-family="Segoe UI, Arial, sans-serif" font-size="27">Academic prompt generation and OpenRouter-backed rendering for non-numeric research diagrams.</text>
  <g>
    <rect x="112" y="334" width="210" height="44" rx="22" fill="#FFFFFF" fill-opacity="0.12"/>
    <text x="153" y="363" fill="#F8FAFC" font-family="Segoe UI, Arial, sans-serif" font-size="20">Flowcharts</text>
    <rect x="336" y="334" width="262" height="44" rx="22" fill="#FFFFFF" fill-opacity="0.12"/>
    <text x="372" y="363" fill="#F8FAFC" font-family="Segoe UI, Arial, sans-serif" font-size="20">Framework Diagrams</text>
    <rect x="612" y="334" width="238" height="44" rx="22" fill="#FFFFFF" fill-opacity="0.12"/>
    <text x="645" y="363" fill="#F8FAFC" font-family="Segoe UI, Arial, sans-serif" font-size="20">OpenRouter Render</text>
  </g>
  <g>
    <rect x="1016" y="126" width="386" height="270" rx="24" fill="#FFFFFF" fill-opacity="0.14" stroke="#FFFFFF" stroke-opacity="0.16"/>
    <rect x="1060" y="168" width="110" height="56" rx="16" fill="#FFFFFF" fill-opacity="0.18"/>
    <rect x="1248" y="168" width="110" height="56" rx="16" fill="#FFFFFF" fill-opacity="0.18"/>
    <rect x="1154" y="262" width="110" height="56" rx="16" fill="#DBEAFE" fill-opacity="0.30"/>
    <path d="M1170 197H1236" stroke="#F8FAFC" stroke-width="4" stroke-linecap="round"/>
    <path d="M1208 197V250" stroke="#F8FAFC" stroke-width="4" stroke-linecap="round"/>
    <path d="M1208 250L1198 238" stroke="#F8FAFC" stroke-width="4" stroke-linecap="round"/>
    <path d="M1208 250L1218 238" stroke="#F8FAFC" stroke-width="4" stroke-linecap="round"/>
    <text x="1075" y="202" fill="#F8FAFC" font-family="Segoe UI, Arial, sans-serif" font-size="18">Input</text>
    <text x="1271" y="202" fill="#F8FAFC" font-family="Segoe UI, Arial, sans-serif" font-size="18">Output</text>
    <text x="1171" y="296" fill="#082F49" font-family="Segoe UI, Arial, sans-serif" font-size="18">Prompt Engine</text>
    <rect x="1084" y="348" width="250" height="28" rx="14" fill="#FFFFFF" fill-opacity="0.14"/>
    <text x="1126" y="367" fill="#CCFBF1" font-family="Segoe UI, Arial, sans-serif" font-size="16">Readable labels • clear arrows</text>
  </g>
</svg>
