<svg width="1600" height="980" viewBox="0 0 1600 980" fill="none" xmlns="http://www.w3.org/2000/svg">
  <rect width="1600" height="980" rx="36" fill="#F8FAFC"/>
  <rect x="50" y="50" width="1500" height="880" rx="30" fill="#FFFFFF" stroke="#CBD5E1"/>
  <rect x="50" y="50" width="1500" height="72" rx="30" fill="#082F49"/>
  <circle cx="102" cy="86" r="10" fill="#F97316"/>
  <circle cx="136" cy="86" r="10" fill="#FACC15"/>
  <circle cx="170" cy="86" r="10" fill="#22C55E"/>
  <text x="218" y="94" fill="#E0F2FE" font-family="Segoe UI, Arial, sans-serif" font-size="24">Figures Diagram</text>
  <rect x="96" y="164" width="500" height="710" rx="24" fill="#F8FAFC" stroke="#E2E8F0"/>
  <text x="130" y="216" fill="#082F49" font-family="Georgia, 'Times New Roman', serif" font-size="34" font-weight="700">Diagram Brief</text>
  <text x="130" y="252" fill="#475569" font-family="Segoe UI, Arial, sans-serif" font-size="20">Prompt-only or production mode</text>
  <rect x="130" y="294" width="432" height="100" rx="18" fill="#FFFFFF" stroke="#CBD5E1"/>
  <text x="158" y="332" fill="#334155" font-family="Segoe UI, Arial, sans-serif" font-size="18">Figure type</text>
  <text x="158" y="364" fill="#082F49" font-family="Segoe UI, Arial, sans-serif" font-size="24">Conceptual framework</text>
  <rect x="130" y="418" width="432" height="126" rx="18" fill="#FFFFFF" stroke="#CBD5E1"/>
  <text x="158" y="456" fill="#334155" font-family="Segoe UI, Arial, sans-serif" font-size="18">Nodes</text>
  <text x="158" y="488" fill="#082F49" font-family="Segoe UI, Arial, sans-serif" font-size="22">Stimulus • Organism • Response</text>
  <text x="158" y="518" fill="#082F49" font-family="Segoe UI, Arial, sans-serif" font-size="22">Fun • Feeling • Fantasy • Image</text>
  <rect x="130" y="576" width="432" height="86" rx="18" fill="#FFFFFF" stroke="#CBD5E1"/>
  <text x="158" y="612" fill="#334155" font-family="Segoe UI, Arial, sans-serif" font-size="18">Production model</text>
  <text x="158" y="640" fill="#082F49" font-family="Segoe UI, Arial, sans-serif" font-size="24">google/gemini-3.1-flash-image-preview</text>
  <rect x="130" y="696" width="432" height="56" rx="18" fill="#0F766E"/>
  <text x="286" y="731" fill="#FFFFFF" font-family="Segoe UI, Arial, sans-serif" font-size="22" font-weight="700">Generate Diagram Prompt</text>
  <rect x="646" y="164" width="854" height="710" rx="24" fill="#F8FAFC" stroke="#E2E8F0"/>
  <text x="682" y="216" fill="#082F49" font-family="Georgia, 'Times New Roman', serif" font-size="34" font-weight="700">Output Surface</text>
  <rect x="682" y="258" width="786" height="186" rx="20" fill="#FFFFFF" stroke="#CBD5E1"/>
  <text x="714" y="300" fill="#475569" font-family="Segoe UI, Arial, sans-serif" font-size="18">Final prompt</text>
  <text x="714" y="336" fill="#082F49" font-family="Segoe UI, Arial, sans-serif" font-size="22">Draw a publication-ready academic conceptual framework</text>
  <text x="714" y="366" fill="#082F49" font-family="Segoe UI, Arial, sans-serif" font-size="22">with crisp readable labels, balanced spacing, clear</text>
  <text x="714" y="396" fill="#082F49" font-family="Segoe UI, Arial, sans-serif" font-size="22">directional arrows, and a clean white background.</text>
  <rect x="682" y="476" width="246" height="166" rx="20" fill="#FFFFFF" stroke="#CBD5E1"/>
  <rect x="952" y="476" width="246" height="166" rx="20" fill="#FFFFFF" stroke="#CBD5E1"/>
  <rect x="1222" y="476" width="246" height="166" rx="20" fill="#FFFFFF" stroke="#CBD5E1"/>
  <text x="712" y="520" fill="#082F49" font-family="Segoe UI, Arial, sans-serif" font-size="20" font-weight="700">Prompt Pack</text>
  <text x="712" y="554" fill="#334155" font-family="Segoe UI, Arial, sans-serif" font-size="18">Figure type</text>
  <text x="712" y="582" fill="#334155" font-family="Segoe UI, Arial, sans-serif" font-size="18">Assumptions</text>
  <text x="712" y="610" fill="#334155" font-family="Segoe UI, Arial, sans-serif" font-size="18">Recommended model</text>
  <text x="982" y="520" fill="#082F49" font-family="Segoe UI, Arial, sans-serif" font-size="20" font-weight="700">Render Files</text>
  <text x="982" y="554" fill="#334155" font-family="Segoe UI, Arial, sans-serif" font-size="18">prompt.txt</text>
  <text x="982" y="582" fill="#334155" font-family="Segoe UI, Arial, sans-serif" font-size="18">response.json</text>
  <text x="982" y="610" fill="#334155" font-family="Segoe UI, Arial, sans-serif" font-size="18">diagram_1.png</text>
  <text x="1252" y="520" fill="#082F49" font-family="Segoe UI, Arial, sans-serif" font-size="20" font-weight="700">Quality Bar</text>
  <text x="1252" y="554" fill="#334155" font-family="Segoe UI, Arial, sans-serif" font-size="18">Readable text</text>
  <text x="1252" y="582" fill="#334155" font-family="Segoe UI, Arial, sans-serif" font-size="18">Clear arrows</text>
  <text x="1252" y="610" fill="#334155" font-family="Segoe UI, Arial, sans-serif" font-size="18">Uncluttered layout</text>
  <rect x="682" y="680" width="786" height="146" rx="20" fill="#FFFFFF" stroke="#CBD5E1"/>
  <text x="714" y="724" fill="#082F49" font-family="Segoe UI, Arial, sans-serif" font-size="22" font-weight="700">Rendered Figure Snapshot</text>
  <rect x="714" y="748" width="220" height="40" rx="14" fill="#DBEAFE"/>
  <rect x="972" y="748" width="220" height="40" rx="14" fill="#CCFBF1"/>
  <rect x="1230" y="748" width="206" height="40" rx="14" fill="#E2E8F0"/>
  <path d="M824 788V822H1082V788" stroke="#0F766E" stroke-width="4"/>
  <path d="M1082 788L1072 802" stroke="#0F766E" stroke-width="4"/>
  <path d="M1082 788L1092 802" stroke="#0F766E" stroke-width="4"/>
</svg>
